<svg xmlns="http://www.w3.org/2000/svg" viewBox="0 0 576 512" fill="#FDB515">  
  <path d="M288 32C388.4 32 464 107.6 464 208c0 88.1-61.5 155.4-147.5 201.8L272 396c0 50.5-22.5 115.9-92.6 115.9C81 511.9 0 419.4 0 384c0-88.1 61.5-155.4 147.5-201.8C98.2 226.6 32 175.5 32 128 32 107.6 107.6 32 288 32zM576 32C676.4 32 752 107.6 752 208c0 88.1-61.5 155.4-147.5 201.8L560 396c0 50.5-22.5 115.9-92.6 115.9C481 511.9 400 419.4 400 384c0-88.1 61.5-155.4 147.5-201.8C498.2 226.6 432 175.5 432 128 432 107.6 507.6 32 576 32z"/>  
</svg>